<svg version="1.1" width="35" height="35" viewBox="-1 -1 35 35" xmlns="http://www.w3.org/2000/svg" xmlns:xlink="http://www.w3.org/1999/xlink">
  <!-- Exported by Scratch - http://scratch.mit.edu/ -->
  <path id="ID0.116947281640023" fill="#F6F6F6" stroke="#000000" stroke-width="2" d="M 240.250 165.500 C 244.526 165.500 248.401 167.237 251.207 170.043 C 254.013 172.849 255.750 176.724 255.750 181 C 255.750 185.276 254.013 189.151 251.207 191.957 C 248.401 194.763 244.526 196.500 240.250 196.500 C 235.974 196.500 232.099 194.763 229.293 191.957 C 226.487 189.151 224.750 185.276 224.750 181 C 224.750 176.724 226.487 172.849 229.293 170.043 C 232.099 167.237 235.974 165.500 240.250 165.500 Z " transform="matrix(1, 0, 0, 1, -223, -164)"/>
  <path id="ID0.9409241010434926" fill="#BDF6FF" stroke="#000000" stroke-width="2" stroke-linecap="round" d="M 245 168.250 C 247.763 167.753 251.079 170.989 253 173.500 C 254.680 175.698 255.367 178.736 255.250 181.500 C 255.134 184.289 254.381 187.549 252.500 189.750 C 250.515 192.075 247.058 194.993 244.250 194.500 C 242.321 194.159 242.714 190.352 243 188.250 C 243.318 185.919 245.940 184.124 246 181.750 C 245.940 179.372 243.173 177.653 243 175.250 C 242.829 172.833 242.908 168.626 245 168.250 Z " transform="matrix(1, 0, 0, 1, -222.75, -164)"/>
  <path id="ID0.6796631044708192" fill="#FF7F87" stroke="#000000" stroke-width="2" stroke-linecap="round" d="M 235.800 182.150 C 237.031 181.899 239.108 181.082 239.600 182.100 C 240.247 183.446 239.500 185.921 238.200 186.900 C 237.072 187.691 235.551 186.133 234.250 186 C 232.694 185.839 229.893 186.609 229.550 186 C 229.222 185.418 231.643 184.164 232.792 183.431 C 233.709 182.845 234.734 182.368 235.800 182.150 Z " transform="matrix(0.9580421447753906, -0.2866273522377014, 0.2866273522377014, 0.9580421447753906, -267.85, -101.8)"/>
  <path id="ID0.6796631044708192" fill="#FF7F87" stroke="#000000" stroke-width="2" stroke-linecap="round" d="M 235.800 182.150 C 237.031 181.899 239.108 181.082 239.600 182.100 C 240.247 183.446 239.500 185.921 238.200 186.900 C 237.072 187.691 235.551 186.133 234.250 186 C 232.694 185.839 229.893 186.609 229.550 186 C 229.222 185.418 231.643 184.164 232.792 183.431 C 233.709 182.845 234.734 182.368 235.800 182.150 Z " transform="matrix(0.9580421447753906, 0.2866273522377014, 0.2866273522377014, -0.9580421447753906, -267.35, 136.45)"/>
  <path id="ID0.6796631044708192" fill="#FF7F87" stroke="#000000" stroke-width="2" stroke-linecap="round" d="M 233.400 182.800 C 235.382 183.264 238.775 185.475 238.700 186.100 C 238.519 186.695 234.637 186.342 232.750 185.900 C 231.800 185.678 230.239 184.862 230.400 184.150 C 230.589 183.333 232.333 182.550 233.400 182.800 Z " transform="matrix(0.9580421447753906, 0.2866273522377014, 0.2866273522377014, -0.9580421447753906, -269.8, 127.3)"/>
</svg>