<svg xmlns="http://www.w3.org/2000/svg" fill="none" viewBox="0 0 400 400" width="32" height="32"><path d="M11.537 11.22S-43.869 189.577 96.72 330.529c98.756 98.979 228.946 32.658 228.946 32.658l36.615 36.71 36.96-36.987-36.649-36.745s66.148-130.562-32.574-229.54C189.43-44.33 11.537 11.22 11.537 11.22" style="fill:#14385f"/><path d="m377.03 385.143 7.495-7.481-65.561-65.731V218.84l-35.717-35.81v-24.866a21.97 21.97 0 0 0 12.798-8.891 22.07 22.07 0 0 0-3.541-28.978 21.94 21.94 0 0 0-14.559-5.531 21.94 21.94 0 0 0-14.56 5.531 22.07 22.07 0 0 0-3.54 28.978 21.96 21.96 0 0 0 12.798 8.891v29.265l35.716 35.809v78.061l-91.019-91.256v-86.476l-15.198-15.273a22.1 22.1 0 0 0 2.789-15.385 22.06 22.06 0 0 0-8.082-13.374 21.964 21.964 0 0 0-29.115 1.778 22.1 22.1 0 0 0-1.772 29.19 22 22 0 0 0 13.339 8.103 21.96 21.96 0 0 0 15.345-2.796l12.09 12.121v71.549L93.057 85.403a22.07 22.07 0 0 0-.43-23.338 22 22 0 0 0-9.147-7.956 21.92 21.92 0 0 0-23.105 2.863 22.03 22.03 0 0 0-6.938 9.95 22.1 22.1 0 0 0-.626 12.125 22.04 22.04 0 0 0 5.877 10.615 21.92 21.92 0 0 0 26.874 3.255l114.024 114.321h-54.854l-32.158-32.242H90.397a22.04 22.04 0 0 0-6.057-10.514 21.95 21.95 0 0 0-10.694-5.699 21.9 21.9 0 0 0-12.081.85 21.97 21.97 0 0 0-9.797 7.138 22.07 22.07 0 0 0-2.43 23.216 22 22 0 0 0 8.105 9.023 21.94 21.94 0 0 0 11.642 3.345 21.94 21.94 0 0 0 13.53-4.682 22.04 22.04 0 0 0 7.782-12.045h17.79l32.159 32.207h69.81l89.671 89.94H197.582l-30.19-30.303a21.87 21.87 0 0 0-.322-21.828 21.8 21.8 0 0 0-8.09-7.868 21.7 21.7 0 0 0-10.932-2.754 21.95 21.95 0 0 0-9.878 2.376 22 22 0 0 0-7.76 6.572 22.1 22.1 0 0 0 1.764 28.329 22 22 0 0 0 8.516 5.553 21.97 21.97 0 0 0 19.621-2.415l32.884 32.97h117.237l66.632 66.77zM268.67 136.831a9.34 9.34 0 0 1 2.507-6.951 9.3 9.3 0 0 1 6.768-2.933 9.28 9.28 0 0 1 6.767 2.933 9.31 9.31 0 0 1 2.507 6.951 9.33 9.33 0 0 1-2.907 6.218 9.28 9.28 0 0 1-12.734 0 9.32 9.32 0 0 1-2.908-6.218m-85.319-30.545a9.28 9.28 0 0 1-6.571-2.729 9.33 9.33 0 0 1-2.721-6.587c0-2.471.979-4.84 2.721-6.588a9.28 9.28 0 0 1 13.141 0 9.33 9.33 0 0 1 2.722 6.588c0 2.47-.979 4.84-2.722 6.587a9.28 9.28 0 0 1-6.57 2.729M80.795 80.658a9.3 9.3 0 0 1-6.654 3.044 9.27 9.27 0 0 1-6.79-2.726 9.32 9.32 0 0 1-2.719-6.807 9.34 9.34 0 0 1 3.036-6.671 9.28 9.28 0 0 1 12.824.303 9.33 9.33 0 0 1 .303 12.857M69.085 189.61a9.28 9.28 0 0 1-6.57-2.728 9.33 9.33 0 0 1-2.722-6.588c0-2.47.979-4.84 2.721-6.587a9.28 9.28 0 0 1 6.57-2.729 9.28 9.28 0 0 1 6.571 2.729 9.33 9.33 0 0 1 2.722 6.587 9.33 9.33 0 0 1-2.722 6.588 9.28 9.28 0 0 1-6.57 2.728m78.963 86.754a9.28 9.28 0 0 1-6.933-2.514 9.32 9.32 0 0 1-2.925-6.785 9.34 9.34 0 0 1 2.925-6.785 9.29 9.29 0 0 1 6.933-2.514 9.29 9.29 0 0 1 6.202 2.915 9.33 9.33 0 0 1 0 12.767 9.3 9.3 0 0 1-6.202 2.916" style="fill:#f4bd22"/></svg>