<svg xmlns="http://www.w3.org/2000/svg" width="64" height="64" viewBox="0 0 64 24" fill="none">
<g clip-path="url(#clip0_35_121)">
<path fill-rule="evenodd" clip-rule="evenodd" d="M16.721 11.7036C17.4277 11.0683 17.8926 10.2309 17.8926 9.2502C17.8926 6.99878 16.1829 5.5 13.2507 5.5H6.10629C5.70195 5.5 5.37402 5.8356 5.37402 6.24939V17.7476C5.37402 18.1614 5.70195 18.497 6.10629 18.497H13.7378C16.167 18.497 18.3797 17.2459 18.3797 14.7468C18.3797 13.3295 17.7525 12.3162 16.7178 11.7004L16.721 11.7036ZM8.79339 8.12612C8.79339 8.0577 8.84751 8.00231 8.91437 8.00231H13.3111C14.1007 8.00231 14.6547 8.50081 14.6547 9.25346C14.6547 10.0061 14.1644 10.5046 13.3111 10.5046H8.91437C8.84751 10.5046 8.79339 10.4492 8.79339 10.3808V8.12938V8.12612ZM13.1902 15.998H8.91437C8.84751 15.998 8.79339 15.9426 8.79339 15.8742V13.1242C8.79339 13.0558 8.84751 13.0004 8.91437 13.0004H13.1902C14.3395 13.0004 15.145 13.5022 15.145 14.4992C15.145 15.4962 14.435 15.998 13.1902 15.998Z" fill="#1C2829"/>
<path fill-rule="evenodd" clip-rule="evenodd" d="M31.2679 5.5H25.0883C23.0952 5.5 21.3537 6.87171 20.8411 8.83967L18.5711 17.5554C18.4469 18.0311 18.7971 18.5003 19.2811 18.5003H21.3028C21.6339 18.5003 21.9268 18.2722 22.0096 17.9431L22.6208 15.5939C22.6336 15.5386 22.6845 15.5027 22.7386 15.5027H28.463C28.5299 15.5027 28.584 15.5581 28.584 15.6265V17.7509C28.584 18.1647 28.912 18.5003 29.3163 18.5003H31.2711C31.6755 18.5003 32.0034 18.1647 32.0034 17.7509V6.24939C32.0034 5.8356 31.6755 5.5 31.2711 5.5H31.2679ZM28.5808 12.8733C28.5808 12.9418 28.5267 12.9971 28.4599 12.9971H23.4518C23.3722 12.9971 23.3117 12.919 23.334 12.8408L24.2095 9.48154C24.4388 8.60508 25.2124 7.99579 26.0975 7.99579H28.4599C28.5267 7.99579 28.5808 8.05118 28.5808 8.1196V12.8701V12.8733Z" fill="#1C2829"/>
<path fill-rule="evenodd" clip-rule="evenodd" d="M33.1748 15.1834C33.1748 16.0631 33.6842 17.0178 34.6553 17.6564C35.6263 18.2885 36.5751 18.497 37.7817 18.497H40.7808C42.828 18.497 43.9741 18.2429 44.8178 17.5945C45.6647 16.9396 46.0881 15.9654 46.0881 14.7566C46.0881 12.4693 44.2256 11.4397 40.0931 10.6382C38.1669 10.2668 36.3713 10.0941 36.3172 9.06774C36.2853 8.48452 36.6706 7.99253 37.8231 7.99253H41.2838C41.8792 7.99253 42.2995 8.13915 42.6401 8.63766C42.7484 8.80057 42.7961 9.071 42.8152 9.31537C42.8375 9.62164 43.0859 9.85949 43.3851 9.85949H45.1808C45.5437 9.85949 45.8366 9.55973 45.8398 9.1883C45.8398 9.09055 45.8398 8.97977 45.8398 8.85922C45.8398 7.90782 45.2922 6.94339 44.3212 6.3113C43.3565 5.67269 41.8792 5.5 40.6726 5.5H38.4917C36.4382 5.5 35.2761 5.80301 34.4356 6.45791C33.5951 7.10956 33.1748 8.03815 33.1748 9.2502C33.1748 13.8313 42.8121 12.5215 42.8121 14.9847C42.8121 15.7145 42.0448 15.998 41.1756 15.998H37.7021C36.8234 15.998 36.3331 15.5809 36.3331 14.9521C36.3331 14.9521 36.3872 14.1897 35.5945 14.1897H33.8338C33.4709 14.1897 33.1748 14.4927 33.1748 14.8641C33.1748 14.9586 33.1748 15.0661 33.1748 15.1834Z" fill="#1C2829"/>
<path fill-rule="evenodd" clip-rule="evenodd" d="M58.6261 6.24939V7.24966C58.6261 7.66345 58.2982 7.99905 57.8939 7.99905H50.931C50.8641 7.99905 50.81 8.05444 50.81 8.12286V10.3743C50.81 10.4427 50.8641 10.4981 50.931 10.4981H56.9164C57.3208 10.4981 57.6487 10.8337 57.6487 11.2475V12.2478C57.6487 12.6616 57.3208 12.9971 56.9164 12.9971H50.931C50.8641 12.9971 50.81 13.0525 50.81 13.121V15.8709C50.81 15.9393 50.8641 15.9947 50.931 15.9947H57.8939C58.2982 15.9947 58.6261 16.3303 58.6261 16.7441V17.7444C58.6261 18.1582 58.2982 18.4938 57.8939 18.4938H48.1229C47.7185 18.4938 47.3906 18.1582 47.3906 17.7444V6.24939C47.3906 5.8356 47.7185 5.5 48.1229 5.5H57.8939C58.2982 5.5 58.6261 5.8356 58.6261 6.24939Z" fill="#1C2829"/>
<path d="M57.8935 0H6.10646C2.73485 0 0 2.79881 0 6.24925V17.7507C0 21.2012 2.73485 24 6.10646 24H57.8935C61.2651 24 64 21.2012 64 17.7507V6.24925C64 2.79881 61.2651 0 57.8935 0ZM61.5581 17.7507C61.5581 19.8197 59.9152 21.5009 57.8935 21.5009H6.10646C4.08158 21.5009 2.44195 19.823 2.44195 17.7507V6.24925C2.44195 4.17703 4.08158 2.49905 6.10646 2.49905H57.8935C59.9152 2.49905 61.5581 4.18029 61.5581 6.24925V17.7475V17.7507Z" fill="#1C2829"/>
</g>

<defs>
<clipPath id="clip0_35_121">
<rect width="64" height="24" fill="white"/>
</clipPath>
<clipPath id="clip1_35_121">
<rect width="64" height="24" fill="white" transform="translate(0 24)"/>
</clipPath>
</defs>
</svg>