<svg enable-background="new -269 361 72 72" height="316.227766" viewBox="-269 361 72 72" width="316.227766" xmlns="http://www.w3.org/2000/svg"><g><path d="m-233 433c-19.9 0-36-16.1-36-36s16.1-36 36-36 36 16.1 36 36-16.1 36-36 36z" fill="#ff4500"/><path d="m-224.8 404.5c-2.1 0-3.7-1.7-3.7-3.7 0-2.1 1.7-3.8 3.7-3.8s3.7 1.7 3.7 3.8c.1 2-1.6 3.7-3.7 3.7m.7 6.2c-2.6 2.6-7.5 2.8-8.9 2.8s-6.3-.2-8.9-2.8c-.4-.4-.4-1 0-1.4s1-.4 1.4 0c1.6 1.6 5.1 2.2 7.5 2.2 2.5 0 5.9-.6 7.5-2.2.4-.4 1-.4 1.4 0s.4 1 0 1.4m-20.9-9.9c0-2.1 1.7-3.8 3.8-3.8s3.7 1.7 3.7 3.8-1.7 3.7-3.7 3.7c-2.1 0-3.8-1.7-3.8-3.7m36-3.8c0-2.9-2.4-5.3-5.3-5.3-1.4 0-2.7.6-3.6 1.5-3.6-2.6-8.5-4.3-14-4.5l2.4-11.3 7.8 1.7c.1 2 1.7 3.6 3.7 3.6 2.1 0 3.7-1.7 3.7-3.7 0-2.1-1.7-3.7-3.7-3.7-1.5 0-2.7.9-3.3 2.1l-8.7-1.9c-.2-.1-.5 0-.7.1s-.4.3-.4.6l-2.6 12.3v.2c-5.6.1-10.6 1.8-14.3 4.4-.9-.9-2.2-1.5-3.6-1.5-2.9 0-5.3 2.4-5.3 5.3 0 2.1 1.3 4 3.1 4.8-.1.5-.1 1.1-.1 1.6 0 8.1 9.4 14.6 21 14.6s21-6.5 21-14.6c0-.5 0-1.1-.1-1.6 1.7-.7 3-2.6 3-4.7" fill="#fff"/></g></svg>